<svg width="30" height="30" viewBox="0 0 30 30" fill="none" xmlns="http://www.w3.org/2000/svg">
<path d="M2.5 7.5C2.5 5.42893 4.17893 3.75 6.25 3.75H23.75C25.8211 3.75 27.5 5.42893 27.5 7.5V18.75C27.5 20.8211 25.8211 22.5 23.75 22.5H6.25C4.17893 22.5 2.5 20.8211 2.5 18.75V7.5Z" fill="#FC5A5A"/>
<path fill-rule="evenodd" clip-rule="evenodd" d="M1.25 25.625C1.25 24.9346 1.80964 24.375 2.5 24.375H27.5C28.1904 24.375 28.75 24.9346 28.75 25.625C28.75 26.3154 28.1904 26.875 27.5 26.875H2.5C1.80964 26.875 1.25 26.3154 1.25 25.625Z" fill="#FC5A5A"/>
</svg>
