<svg width="30" height="30" viewBox="0 0 30 30" fill="none" xmlns="http://www.w3.org/2000/svg">
<path d="M4.56814 19.0614C4.21527 18.8594 3.75 19.1036 3.75 19.5101V21.25C3.75 24.0904 8.68816 26.25 15 26.25C21.3118 26.25 26.25 24.0904 26.25 21.25V19.5102C26.25 19.1036 25.7847 18.8594 25.4319 19.0614C25.1362 19.2306 24.8267 19.389 24.5059 19.5367C22.2224 20.5876 19.0297 21.25 15 21.25C10.9703 21.25 7.77763 20.5876 5.49411 19.5367C5.17329 19.389 4.86384 19.2306 4.56814 19.0614Z" fill="#FC5A5A"/>
<path d="M26.25 7.60714C26.25 9.73738 21.2132 11.25 15 11.25C8.7868 11.25 3.75 9.73738 3.75 7.60714C3.75 5.4769 8.7868 3.75 15 3.75C21.2132 3.75 26.25 5.4769 26.25 7.60714Z" fill="#FC5A5A"/>
<path d="M15 13.75C18.2757 13.75 21.3586 13.355 23.7094 12.6108C24.3127 12.4199 24.9081 12.1935 25.4663 11.9229C25.8179 11.7524 26.25 11.9982 26.25 12.3889V14.375C26.25 16.25 22.5618 18.75 15 18.75C7.43816 18.75 3.75 16.25 3.75 14.375V12.3889C3.75 11.9982 4.18214 11.7524 4.53371 11.9229C5.09192 12.1935 5.68732 12.4199 6.29059 12.6108C8.64142 13.355 11.7243 13.75 15 13.75Z" fill="#FC5A5A"/>
</svg>
