<svg width="159" height="18" viewBox="0 0 159 18" fill="none" xmlns="http://www.w3.org/2000/svg">
<g clip-path="url(#clip0_1_51)">
<path opacity="0.5" d="M151.388 16.2775H153.964V9.66103L159 1.34652H156.072L152.735 7.14326H152.676L149.339 1.34652H146.411L151.388 9.66103V16.2775ZM132.124 16.2775H134.701V5.73799H134.759L141.961 16.2775H144.537V1.28797H142.02V12.0031H141.961L134.642 1.28797H132.066L132.124 16.2775ZM120.941 10.8321L123.224 4.33272H123.283L125.566 10.8321H120.941ZM116.432 16.2775H119.067L120.179 13.0571H126.269L127.381 16.2775H130.016L124.454 1.28797H121.995L116.432 16.2775ZM108.703 8.60709V3.57153H111.221C113.036 3.57153 114.09 4.50838 114.09 6.08931C114.09 7.55313 113.153 8.60709 111.045 8.60709H108.703ZM106.185 16.2775H108.762V10.9492H111.338C114.558 10.9492 116.725 9.42683 116.725 6.14786C116.725 3.39587 115.202 1.28797 111.631 1.28797H106.244L106.185 16.2775ZM87.624 16.2775H90.2003V6.26496L94.299 13.4084H95.9385L100.037 6.26496H100.096V16.2775H102.672V1.28797H100.096L95.1773 10.2466H95.1188L90.2003 1.28797H87.624V16.2775ZM77.3187 14.0525C74.391 14.0525 72.4002 11.7104 72.4002 8.78274C72.4002 5.8551 74.391 3.51298 77.3187 3.51298C80.0706 3.51298 82.1786 5.67944 82.1786 8.78274C82.1786 11.8275 80.0706 14.0525 77.3187 14.0525ZM77.3187 16.4532C81.6516 16.4532 84.872 13.3499 84.872 8.78274C84.872 4.21561 81.6516 1.1123 77.3187 1.1123C72.8101 1.1123 69.7653 4.33272 69.7653 8.78274C69.7653 13.2328 72.8101 16.4532 77.3187 16.4532ZM62.3877 16.3946C65.0225 16.3946 67.0133 15.165 68.3015 13.5841L66.4278 12.0031C65.491 13.1742 64.0857 14.0525 62.3877 14.0525C59.5186 14.0525 57.5278 11.9446 57.5278 8.8413C57.5278 5.67944 59.5186 3.57153 62.3877 3.57153C63.9686 3.57153 65.3153 4.21561 66.4278 5.62088L68.3015 4.03995C66.7206 2.1077 64.6127 1.17086 62.3877 1.17086C57.5863 1.17086 54.8929 4.62548 54.8929 8.8413C54.8343 13.7012 58.3475 16.3946 62.3877 16.3946ZM45.056 10.8321L47.281 4.33272H47.3396L49.6231 10.8321H45.056ZM40.4889 16.2775H43.1237L44.2362 13.0571H50.3258L51.4383 16.2775H54.1903L48.5692 1.34652H46.1099L40.4889 16.2775ZM31.1204 16.2775H33.6967V10.3637H39.7862V8.08011H33.6967V3.63008H40.8987V1.34652H31.1204V16.2775ZM20.8151 14.0525C17.8874 14.0525 15.8966 11.7104 15.8966 8.78274C15.8966 5.8551 17.8874 3.51298 20.8151 3.51298C23.5671 3.51298 25.7335 5.67944 25.7335 8.78274C25.7335 11.8275 23.5671 14.0525 20.8151 14.0525ZM20.8151 16.4532C25.148 16.4532 28.3684 13.3499 28.3684 8.78274C28.3684 4.21561 25.148 1.1123 20.8151 1.1123C16.3065 1.1123 13.2617 4.33272 13.2617 8.78274C13.2617 13.2328 16.365 16.4532 20.8151 16.4532ZM6.29395 16.4532C8.69462 16.4532 11.4466 15.0479 11.4466 11.9446C11.4466 9.07551 9.39725 8.37287 6.82092 7.37747C5.00578 6.67484 4.01038 6.32352 4.01038 5.21102C4.01038 4.09851 4.94722 3.45443 6.11828 3.45443C7.11368 3.45443 8.3433 3.9814 9.57291 4.9768L11.0953 2.986C9.57291 1.75639 7.93342 1.1123 6.17684 1.1123C3.60051 1.1123 1.43405 2.92745 1.43405 5.26956C1.43405 8.02155 3.65907 9.01696 5.94263 9.8367C7.81632 10.4808 8.81172 10.9492 8.81172 12.2374C8.81172 13.3499 7.99198 14.0525 6.3525 14.0525C5.06433 14.0525 3.60051 13.4084 2.48801 12.1203L0.907074 14.0525C2.488 15.692 4.42025 16.4532 6.29395 16.4532Z" fill="white"/>
</g>
<defs>
<clipPath id="clip0_1_51">
<rect width="158.093" height="17.5659" fill="white" transform="translate(0.907104)"/>
</clipPath>
</defs>
</svg>
