<svg width="148" height="28" viewBox="0 0 148 28" fill="none" xmlns="http://www.w3.org/2000/svg">
<g opacity="0.5">
<path d="M57.5578 6.12216H63.0765L63.9635 1.67507H58.4449L57.5578 6.12216ZM56.9869 8.98321H62.507L58.9997 26.5429C58.745 26.6312 57.9545 26.9439 56.864 26.9439C55.3899 26.9439 54.0403 26.3734 54.0403 24.3491C54.0403 23.9684 54.0856 23.5339 54.1837 23.0422C55.2801 17.5625 56.9869 8.98321 56.9869 8.98321ZM111.79 8.58212C108.117 8.58212 106.656 10.7222 105.971 12.0244H105.905L106.117 8.98672H100.663C100.628 9.65393 100.391 11.7607 100.039 13.5773L98.542 21.1707C98.3619 22.1029 98.0296 23.4813 98.0296 24.281C98.0296 25.9843 98.8991 26.9439 100.837 26.9439C101.923 26.9439 102.707 26.6491 102.992 26.5429L104.814 17.3979C105.322 14.8722 107.157 13.2204 109.341 13.2204C111.102 13.2204 111.943 14.4974 111.943 15.5419C111.943 16.4513 111.715 17.4587 111.536 18.3502L110.752 22.2664C110.66 22.7366 110.459 23.6402 110.459 24.3479C110.459 26.0786 111.44 26.9439 113.305 26.9439C114.322 26.9439 114.966 26.6909 115.424 26.5429L117.061 18.3444C117.417 16.4919 117.547 15.5155 117.547 14.3363C117.547 10.9418 115.552 8.58212 111.79 8.58212ZM87.2735 12.8276C84.1892 12.8276 82.4794 15.9643 82.4794 18.7608C82.4794 21.1205 83.5509 22.6997 85.9853 22.6997C88.7373 22.6997 90.892 20.3697 90.892 16.394C90.892 14.575 89.9171 12.8276 87.2735 12.8276ZM85.6472 26.945C79.7377 26.945 76.9111 23.4193 76.9111 18.9255C76.9111 12.7596 81.1664 8.58212 87.7419 8.58212C93.4493 8.58212 96.478 12.0185 96.478 16.4322C96.478 23.0469 91.9343 26.945 85.6457 26.945H85.6472ZM64.9794 22.7164C64.8535 23.3489 64.7745 23.7917 64.7745 24.3348C64.7745 26.3484 66.1271 26.9439 67.5602 26.9439C68.7063 26.9439 69.4148 26.6324 69.6754 26.5429L72.3293 13.2322L76.6197 13.2311L77.4673 8.98321H73.1768L73.3847 7.93643C73.7741 5.97417 74.7007 5.11125 76.308 5.11125C77.3809 5.11125 78.2475 5.3011 78.5491 5.37986L79.3571 1.33839C79.0131 1.25246 77.4263 0.865723 75.0798 0.865723C71.3412 0.865723 68.8908 3.12513 68.1662 6.76434L67.7226 8.98321H64.9296L64.0806 13.2311H66.8765C66.8765 13.2311 65.7743 18.7346 64.9794 22.7164ZM52.2764 8.58212C49.5053 8.58212 47.983 10.4955 47.3857 12.022H47.3228L47.535 8.98321H42.0794C42.0311 10.0358 41.8086 11.8167 41.2523 14.618C40.6887 17.4563 40.1413 20.2863 39.5748 23.041C39.484 23.4761 39.4372 23.919 39.4342 24.3635C39.4342 25.8065 40.15 26.9427 42.2682 26.9427C43.3178 26.9427 44.0467 26.6718 44.3966 26.5429L46.02 18.4016C46.604 15.2876 47.6668 13.2287 50.7481 13.2287C52.1505 13.2287 53.4826 13.5259 53.7607 13.607L54.6946 8.92348C54.4911 8.85424 53.6846 8.58212 52.2749 8.58212H52.2764ZM132.326 16.1005C132.62 14.4903 131.679 12.8276 129.552 12.8276C126.953 12.8276 125.812 14.5929 125.302 16.1005H132.326ZM134.788 22.6339C134.788 25.0772 132.41 26.9499 128.202 26.9499C122.383 26.9499 119.539 23.3442 119.539 18.9303C119.539 14.5488 122.462 8.58578 129.598 8.58578C134.303 8.58578 137.821 10.9108 137.821 16.2353C137.821 17.5434 137.527 18.9662 137.402 19.5366H124.897C124.875 20.8138 125.956 23.0279 130.303 23.0279C132.242 23.0279 134.435 22.3463 134.788 22.1733V22.6339ZM32.6053 16.1005C32.9002 14.4903 31.9583 12.8276 29.8314 12.8276C27.2312 12.8276 26.0918 14.5929 25.5825 16.1005H32.6053ZM35.0677 22.6339C35.0677 25.0772 32.6904 26.9499 28.4822 26.9499C22.6635 26.9499 19.8188 23.3442 19.8188 18.9303C19.8188 14.5488 22.7414 8.58578 29.8769 8.58578C34.5831 8.58578 38.0992 10.9108 38.0992 16.2353C38.0992 17.5434 37.8065 18.9662 37.6806 19.5366H25.1751C25.1546 20.8138 26.2367 23.0279 30.5828 23.0279C32.5203 23.0279 34.7149 22.3463 35.0677 22.1733V22.6339ZM1.90517 3.00817H7.45657V20.4676C7.45657 23.0923 8.76991 24.4327 10.8788 24.4327C11.0945 24.4327 11.2204 24.4052 11.2622 24.3957C10.3384 25.7873 9.14011 26.9284 6.389 26.9284C3.47731 26.9284 1.90517 24.9172 1.90517 21.9012V3.00817Z" fill="white"/>
<path d="M9.00239 18.6636V20.4969C9.00239 22.267 9.9634 22.9008 11.013 22.9008C12.0855 22.9008 12.6595 22.1762 13.1854 21.355C14.0685 19.9765 24.8515 3.00761 24.8515 3.00761H19.0808L9.00239 18.6636Z" fill="white"/>
<path d="M142.808 11.0692H143.418C143.986 11.0692 144.266 10.7971 144.266 10.4666C144.266 10.266 144.165 9.97237 143.638 9.97237H143.028L142.808 11.0692ZM142.79 9.71093H143.692C144.235 9.71093 144.563 10.0011 144.563 10.4247C144.563 11.1301 143.904 11.2781 143.594 11.3128L144.199 12.7939H143.871L143.292 11.3306H142.755L142.464 12.7939H142.176L142.79 9.71093ZM143.033 13.701C144.521 13.701 145.551 12.6329 145.696 11.308C145.842 9.98437 144.887 8.9149 143.557 8.9149C142.083 8.9149 141.038 9.98437 140.893 11.308C140.75 12.6329 141.704 13.701 143.033 13.701ZM143.591 8.59622C145.093 8.59622 146.182 9.81369 146.018 11.3091C145.854 12.8035 144.641 14.0209 142.998 14.0209C141.498 14.0209 140.41 12.8035 140.571 11.3091C140.737 9.81369 141.99 8.59622 143.591 8.59622Z" fill="white"/>
</g>
</svg>
