<svg width="131" height="30" viewBox="0 0 131 30" fill="none" xmlns="http://www.w3.org/2000/svg">
<g clip-path="url(#clip0_1_49)">
<g opacity="0.5">
<path d="M0.0277557 0.10353C3.74367 0.10353 7.47965 0.06225 11.1956 0.10353C13.1934 0.124023 15.1912 0.227074 17.169 0.412394C18.9471 0.577221 20.7051 0.968504 22.3033 1.85397C23.602 2.55426 24.7008 3.50165 25.3197 4.92273C26.299 7.1675 25.4602 9.82419 23.4022 11.1835C21.8639 12.1927 20.1458 12.5839 18.3878 12.8517C17.9881 12.9135 17.5686 12.9341 17.0891 12.9959C18.1679 13.1812 19.1668 13.346 20.1657 13.552C21.8838 13.9226 23.5021 14.4992 24.9406 15.6114C28.6558 18.4741 28.3161 23.7257 24.9201 26.3619C23.3023 27.6181 21.4444 28.2978 19.4665 28.6479C18.1279 28.895 16.7695 29.0599 15.431 29.0599C10.5163 29.101 5.58165 29.0804 0.667006 29.0804C0.46734 29.0804 0.24748 29.0804 0.0476684 29.0599C0.0476684 28.9362 0.0476684 28.7921 0.0476684 28.6684C0.307497 28.6273 0.547125 28.5862 0.806953 28.5655C2.50499 28.4007 3.56392 27.577 3.78364 26.1559C3.90353 25.3527 3.98344 24.5495 4.00335 23.7463C4.0234 17.4443 4.0234 11.1424 4.00335 4.84032C4.00335 4.22244 3.94348 3.58406 3.80369 2.98682C3.5039 1.68929 2.72486 0.886091 1.40624 0.721265C0.906787 0.638998 0.467342 0.556583 0.0277557 0.494809C0.0277557 0.371263 0.0277557 0.227077 0.0277557 0.10353ZM11.8948 0.618356C11.8948 0.844956 11.8948 1.05092 11.8948 1.23624C11.8948 8.97986 11.8948 16.7029 11.8948 24.4466C11.8948 25.0232 11.9147 25.5998 11.9748 26.1766C12.1744 28.0094 12.614 28.4831 14.3921 28.5244C16.35 28.5655 18.088 27.9272 18.8272 25.4763C19.1668 24.3849 19.3068 23.1902 19.4066 22.037C19.5464 20.1629 19.4265 18.2888 18.8473 16.4764C18.3478 14.9729 17.3489 14.005 15.8704 13.6342C15.2511 13.4696 14.5918 13.4078 13.9326 13.3047C13.9326 13.1812 13.9326 13.0165 13.9326 12.8517C14.0524 12.831 14.1523 12.831 14.2522 12.8105C16.3899 12.6251 17.4887 11.7396 18.0281 9.61824C18.5075 7.78538 18.5276 5.93189 18.1279 4.09889C17.8483 2.73958 17.189 1.56574 15.8305 1.03027C14.5719 0.556581 13.2733 0.597716 11.8948 0.618356Z" fill="white"/>
<path d="M103.874 0C103.874 2.80088 103.874 5.6224 103.874 8.46441C105.053 8.46441 106.192 8.46441 107.351 8.46441C107.351 8.75278 107.351 8.97939 107.351 9.26761C106.212 9.26761 105.094 9.26761 103.895 9.26761C103.895 9.49421 103.895 9.65904 103.895 9.84436C103.895 14.0663 103.874 18.2676 103.914 22.4896C103.934 23.6223 104.054 24.755 104.274 25.8671C104.694 28.0089 105.872 28.7092 107.931 28.1738C107.991 28.2973 108.07 28.4415 108.19 28.7297C107.49 28.8946 106.871 29.1005 106.212 29.1829C104.593 29.3887 102.996 29.2652 101.437 28.7092C98.9603 27.8236 97.6809 25.8671 97.1817 23.3339C97.0017 22.3659 96.9021 21.3774 96.9021 20.3889C96.8626 16.9083 96.8816 13.4072 96.8816 9.92677C96.8816 9.7413 96.8816 9.53535 96.8816 9.28825C96.0429 9.28825 95.2641 9.28825 94.4253 9.28825C94.4253 9.02052 94.4253 8.79392 94.4253 8.48505C94.6449 8.48505 94.904 8.46441 95.1441 8.48505C98.0015 8.8352 99.8591 7.33171 101.317 5.02516C102.296 3.45989 103.015 1.79172 103.475 0C103.615 0 103.754 0 103.874 0Z" fill="white"/>
<path d="M130.146 29.0385C129.945 29.0385 129.725 29.0385 129.485 29.0385C129.485 27.7411 129.485 26.4436 129.485 25.1461C129.446 25.1461 129.427 25.1256 129.386 25.1256C129.326 25.2491 129.247 25.352 129.206 25.4962C128.767 26.5671 128.348 27.6587 127.907 28.7296C127.847 28.8532 127.708 28.9561 127.609 29.0591C127.528 28.9561 127.408 28.8532 127.369 28.7296C126.909 27.6174 126.47 26.5054 126.029 25.4138C125.99 25.3109 125.95 25.2285 125.83 25.1461C125.83 26.4436 125.83 27.7205 125.83 29.0385C125.611 29.0385 125.431 29.0385 125.211 29.0385C125.211 27.3292 125.211 25.6404 125.211 23.9722C126.029 23.7869 126.07 23.8075 126.35 24.5488C126.769 25.5786 127.168 26.6084 127.628 27.7411C127.868 27.1439 128.087 26.6289 128.288 26.1347C128.508 25.5992 128.748 25.0431 128.926 24.487C129.067 24.0133 129.326 23.8075 129.806 23.9104C129.905 23.9311 130.026 23.9311 130.146 23.9311C130.146 25.6197 130.146 27.3292 130.146 29.0385Z" fill="white"/>
<path d="M63.079 29.2654C59.2028 29.2243 56.1669 27.8856 54.1278 24.6315C52.8103 22.5103 52.2906 20.1418 52.4897 17.65C52.8103 13.6545 54.5084 10.5241 58.124 8.73238C59.822 7.88804 61.6401 7.66144 63.4787 7.74386C66.4151 7.8674 68.9724 8.91769 70.89 11.2862C72.7081 13.5104 73.4268 16.1671 73.3273 19.0298C73.2277 21.5629 72.468 23.8696 70.83 25.826C69.192 27.7826 67.0943 28.8535 64.6175 29.1624C64.0569 29.2037 63.4582 29.2243 63.079 29.2654ZM59.6024 18.5767C59.683 20.6773 59.762 22.7781 59.882 24.8786C59.9216 25.476 60.1016 26.0733 60.3022 26.6499C60.7208 27.8237 61.5801 28.3592 62.8785 28.3798C64.2179 28.4005 65.1357 27.8856 65.4958 26.6705C65.8164 25.6407 66.036 24.5491 66.055 23.4988C66.1355 20.2449 66.096 16.9908 66.0755 13.7369C66.055 12.5218 65.935 11.3067 65.4168 10.1739C64.9161 9.08252 64.0378 8.60883 62.899 8.62947C61.7806 8.62947 60.8804 9.06188 60.4412 10.1739C60.1821 10.8536 59.9421 11.5744 59.882 12.2953C59.743 14.3548 59.683 16.4554 59.6024 18.5767Z" fill="white"/>
<path d="M50.6322 18.5352C50.5531 21.542 49.6734 24.2812 47.4952 26.4643C46.0577 27.9059 44.3187 28.7708 42.3411 29.0799C40.1644 29.4299 38.0067 29.3476 35.9281 28.5031C33.0912 27.3293 31.1941 25.2079 30.2953 22.2011C29.1754 18.4734 29.5956 14.9311 31.8133 11.739C33.4513 9.3705 35.808 8.17602 38.5849 7.82587C40.444 7.59942 42.3016 7.68169 44.0596 8.36134C47.7748 9.78242 49.7934 12.6451 50.4726 16.5787C50.5121 16.8259 50.5531 17.073 50.5722 17.3201C50.5926 17.7114 50.6117 18.1028 50.6322 18.5352ZM36.8473 18.5558C36.8869 18.5558 36.9074 18.5558 36.9469 18.5558C36.9469 19.7915 36.9279 21.0272 36.9469 22.2628C36.9879 23.6634 37.0069 25.0639 37.4475 26.4025C37.7461 27.3293 38.2863 28.0294 39.2641 28.256C41.2022 28.7297 42.5607 27.947 42.9603 25.97C43.2208 24.6931 43.3409 23.375 43.3409 22.057C43.3599 18.9883 43.3409 15.9403 43.2399 12.8717C43.2208 11.9861 42.9603 11.08 42.6807 10.2355C42.2811 9.08228 41.3632 8.58794 40.2039 8.58794C39.0255 8.5673 38.1062 9.06164 37.6466 10.215C37.4065 10.8327 37.187 11.4917 37.1474 12.1509C37.0069 14.2928 36.9469 16.414 36.8473 18.5558Z" fill="white"/>
<path d="M75.6255 14.1897C75.6255 12.2951 75.6255 10.4415 75.6255 8.5262C81.1192 8.5262 86.613 8.5262 92.1272 8.5262C92.1667 9.1028 92.1872 9.65891 91.8871 10.215C88.6506 16.0639 85.4536 21.9129 82.2376 27.7617C82.1585 27.9059 82.0985 28.0501 82.018 28.1736C82.0575 28.2148 82.078 28.2561 82.1175 28.2561C83.7555 28.2561 85.4141 28.3178 87.0521 28.2354C89.4893 28.1325 91.1684 26.6085 91.8871 23.9723C91.9676 23.684 92.0467 23.3957 92.0876 23.1073C92.1272 22.7366 92.3072 22.7161 92.6058 22.819C92.6058 24.8784 92.6058 26.9174 92.6058 29.018C86.673 29.018 80.7591 29.018 74.8262 29.018C74.7662 28.4825 74.7662 28.009 75.0458 27.5146C78.3423 21.6451 81.6389 15.755 84.9354 9.88551C85.0349 9.72068 85.114 9.556 85.234 9.3294C85.0745 9.30876 84.9749 9.28827 84.8754 9.28827C83.3369 9.3294 81.7984 9.2265 80.2804 9.43246C78.0027 9.74132 76.4847 11.4713 76.1847 13.8191C76.1246 14.1075 76.0646 14.3546 75.6255 14.1897Z" fill="white"/>
<path d="M123.753 26.5883C123.753 28.1535 122.693 29.2451 121.256 29.2245C119.796 29.2038 118.738 28.0711 118.758 26.506C118.778 24.9407 119.817 23.8698 121.275 23.8698C122.734 23.8492 123.753 24.982 123.753 26.5883ZM123.074 26.5471C123.074 25.4762 122.534 24.673 121.695 24.4877C120.796 24.2817 119.957 24.7143 119.618 25.5586C119.218 26.5471 119.498 27.7623 120.237 28.2771C120.836 28.689 121.475 28.7301 122.095 28.3801C122.813 28.0093 123.074 27.3503 123.074 26.5471Z" fill="white"/>
<path d="M117.14 27.8851C117.299 27.9675 117.459 28.0704 117.62 28.1529C117.059 29.059 116.04 29.4091 114.961 29.1002C113.883 28.7912 113.164 27.7821 113.143 26.5465C113.124 25.3313 113.803 24.3428 114.882 23.9927C115.961 23.6425 117 23.9515 117.62 24.8989C117.459 25.0018 117.299 25.0842 117.14 25.1871C116.301 24.2604 115.201 24.178 114.342 25.0636C113.584 25.8668 113.623 27.2879 114.402 28.0704C115.182 28.853 116.181 28.8119 117.14 27.8851Z" fill="white"/>
<path d="M109.907 27.6796C109.927 27.1029 110.387 26.6705 110.926 26.6911C111.466 26.7116 111.925 27.2059 111.905 27.7414C111.886 28.2975 111.426 28.7506 110.867 28.7299C110.327 28.7299 109.888 28.2562 109.907 27.6796Z" fill="white"/>
</g>
</g>
<defs>
<clipPath id="clip0_1_49">
<rect width="130.28" height="29.2765" fill="white" transform="translate(0.0278168)"/>
</clipPath>
</defs>
</svg>
