<svg width="160" height="39" viewBox="0 0 160 39" fill="none" xmlns="http://www.w3.org/2000/svg">
<g opacity="0.5">
<path d="M45.4239 30.3481H40.4821V12.0568H45.4239V30.3481Z" fill="white"/>
<path d="M42.9559 10.0316C41.3765 10.0316 40.1425 8.80467 40.1425 7.24277C40.1425 5.71966 41.4028 4.48244 42.9559 4.48244C44.5544 4.48244 45.8045 5.69404 45.8045 7.24277C45.8045 8.78022 44.5295 10.0316 42.9559 10.0316Z" fill="white"/>
<path d="M94.5484 30.7273C91.7569 30.7273 89.4352 29.7599 87.8353 27.9292C86.3773 26.265 85.5708 23.9082 85.5708 21.2991C85.5708 18.6135 86.5193 16.1607 88.2525 14.3893C89.9754 12.6188 92.3746 11.6452 94.9963 11.6452C97.053 11.6452 98.7144 12.0989 100.297 12.9906L100.13 17.0811C98.8447 16.1075 97.2096 15.5507 95.5248 15.5507C92.622 15.5507 90.5156 17.8728 90.5156 21.0693C90.5156 23.6376 91.8154 26.6339 95.4882 26.6339C97.2477 26.6339 98.7554 25.9176 99.7918 25.3129L101.087 28.8435C99.7728 29.7476 97.1642 30.7273 94.5484 30.7273Z" fill="white"/>
<path d="M23.9193 30.3484H18.6784L16.2354 24.1138H7.68802L5.39553 30.3484H0.381348L10.1767 4.91721H13.7802L23.9193 30.3484ZM9.24305 19.9498H14.6488L12.7551 14.5385C12.4509 13.7048 12.2028 12.9265 12.0106 12.2205C11.8375 12.8703 11.5853 13.5926 11.2792 14.4609L9.24305 19.9498Z" fill="white"/>
<path d="M38.9906 12.0568H34.0445L29.6436 23.9124L25.3161 12.0568H20.3334L26.986 28.3571C27.4886 29.6239 28.2514 30.3503 29.6956 30.3503H31.4144L38.9906 12.0568Z" fill="white"/>
<path d="M53.9156 30.7278C50.357 30.7278 47.8715 28.2771 47.8715 24.7709C47.8715 21.078 50.6644 18.8663 55.5287 18.7008L58.4783 18.5956V18.3503C58.4783 16.0354 56.691 15.5502 55.195 15.5502C53.7048 15.5502 52.2541 15.9997 50.6469 16.9712L48.9722 13.7513C50.9557 12.4262 53.4589 11.6457 56.2109 11.6457C61.1117 11.6457 63.4963 13.8391 63.4963 18.3503V26.714C63.4963 28.323 63.6339 29.4048 63.915 30.3509H61.062C59.847 30.3509 59.3742 29.8615 59.0112 28.8879C57.5576 30.123 55.8873 30.7278 53.9156 30.7278ZM58.4783 22.163L56.142 22.2324C53.1617 22.3221 52.8192 23.5318 52.8192 24.4299C52.8192 25.858 53.819 26.7099 55.495 26.7099C56.672 26.7099 57.6776 26.3668 58.4783 25.6926V22.163Z" fill="white"/>
<path d="M108.188 30.7278C104.633 30.7278 102.144 28.2771 102.144 24.7709C102.144 21.078 104.936 18.8663 109.804 18.7008L112.751 18.5956V18.3503C112.751 16.0354 110.965 15.5502 109.472 15.5502C107.979 15.5502 106.528 15.9997 104.921 16.9712L103.248 13.7513C105.227 12.4262 107.733 11.6457 110.486 11.6457C115.387 11.6457 117.772 13.8391 117.772 18.3503V26.714C117.772 28.323 117.91 29.4048 118.189 30.3509H115.336C114.121 30.3509 113.647 29.8615 113.285 28.8879C111.832 30.123 110.162 30.7278 108.188 30.7278ZM112.751 22.163L110.415 22.2324C107.436 22.3221 107.092 23.5318 107.092 24.4299C107.092 25.858 108.092 26.7099 109.769 26.7099C110.951 26.7099 111.949 26.3668 112.751 25.6926V22.163Z" fill="white"/>
<path d="M83.3736 30.3482H78.4273V19.6349C78.4273 17.0982 77.6778 15.9654 76.0091 15.9654C74.7092 15.9654 73.3025 16.5457 71.7098 17.745V30.3482H66.7679V12.0568H68.6577C70.0981 12.0568 70.9984 12.6115 71.4068 13.7445L71.4332 13.8407C73.5337 12.3225 75.4308 11.6452 77.5461 11.6452C80.3639 11.6452 83.3736 13.388 83.3736 18.2763V30.3482Z" fill="white"/>
<path d="M151.539 29.82C150.93 27.929 149.013 26.4569 142.269 25.9461C143.346 27.2017 144.479 28.3989 145.67 29.5227H149.095C150.513 29.5227 151.138 29.6423 151.539 29.82Z" fill="white"/>
<path d="M125.662 10.2749C125.347 17.6058 129.257 24.9918 142.145 25.9336L142.272 25.9452C135.726 18.3068 131.314 8.52626 129.543 0.383301C129.543 0.383301 125.947 3.56931 125.662 10.2749Z" fill="white"/>
<path d="M145.67 29.5227C140.592 29.5227 131.823 29.5241 131.823 29.5241C132.006 29.9572 132.643 30.2605 134.086 30.3464C142.73 30.8613 143.957 37.6762 156.328 37.6762C157.417 37.6762 158.094 37.6129 158.777 37.483C153.889 35.9732 149.493 33.134 145.67 29.5227Z" fill="white"/>
</g>
</svg>
