<svg width="171" height="17" viewBox="0 0 171 17" fill="none" xmlns="http://www.w3.org/2000/svg">
<g clip-path="url(#clip0_1_47)">
<g opacity="0.5">
<path d="M15.0948 5.23694C15.0948 2.226 13.0287 0.0659801 9.60691 0.0659801H2.44048V7.85513H0.632507V10.6043H2.44048V15.5134H5.28131V10.6043H8.76771L11.9959 15.5134H15.4823L11.6084 9.94971C13.5453 9.22966 15.0948 7.39696 15.0948 5.23694ZM5.21662 2.61874H9.47796C11.4149 2.61874 12.3186 3.79698 12.3186 5.23694C12.3186 6.6769 11.4149 7.85513 9.47796 7.85513H5.21662V2.61874Z" fill="white"/>
<path d="M22.6489 0H25.4896V15.4474H22.6489V0Z" fill="white"/>
<path d="M37.6278 15.4474H40.4685V2.6182H44.9234V0H33.3019V2.6182H37.6278V15.4474Z" fill="white"/>
<path d="M52.6715 0V9.09825C52.6715 12.7638 55.3825 15.7093 59.4504 15.7093C63.5828 15.7093 66.2294 12.6984 66.2294 9.09825V0H63.3896V8.44377C63.3896 11.3238 61.5803 12.9603 59.386 12.9603C57.1903 12.9603 55.3825 11.2584 55.3825 8.44377V0H52.6715Z" fill="white"/>
<path d="M75.592 0V2.48733H79.0773L73.5895 15.4474H76.5596L77.7219 12.4365H84.2432L85.4055 15.4474H88.5044L81.983 0H75.592ZM78.6909 9.88373L81.0155 4.4509L83.2097 9.88373H78.6909Z" fill="white"/>
<path d="M107.615 8.96738H104.775V12.7638H98.7702V0H95.9289V15.4474H107.615V8.96738Z" fill="white"/>
<path d="M118.914 4.4509C118.914 3.53455 119.819 2.35646 122.142 2.35646C123.563 2.35646 124.854 2.74906 126.274 4.18917L128.341 2.35646C126.92 0.654619 124.854 0 122.336 0C118.85 0 116.074 1.83271 116.074 4.51648C116.074 10.8657 125.822 7.52742 125.822 10.9965C125.822 12.4365 124.402 13.222 122.207 13.3529C120.4 13.3529 118.85 12.4365 117.752 11.2583L115.557 13.222C117.494 15.1857 119.883 16.1021 122.077 16.1021C125.564 16.1021 128.858 14.1383 128.858 10.9311C128.792 4.4509 118.914 7.92016 118.914 4.4509Z" fill="white"/>
<path d="M140.284 10.6696C138.864 10.6696 137.831 11.8478 137.831 13.1569C137.831 14.5969 138.864 15.6442 140.284 15.6442C141.575 15.6442 142.738 14.5969 142.738 13.1569C142.738 11.8478 141.575 10.6696 140.284 10.6696Z" fill="white"/>
<path d="M154.166 10.6696C152.875 10.6696 151.712 11.8478 151.712 13.1569C151.712 14.5969 152.875 15.6442 154.166 15.6442C155.457 15.6442 156.619 14.5969 156.619 13.1569C156.555 11.8478 155.457 10.6696 154.166 10.6696Z" fill="white"/>
<path d="M167.983 10.6696C166.563 10.6696 165.529 11.8478 165.529 13.1569C165.529 14.5969 166.563 15.6442 167.983 15.6442C169.274 15.6442 170.436 14.5969 170.436 13.1569C170.436 11.8478 169.274 10.6696 167.983 10.6696Z" fill="white"/>
</g>
</g>
<defs>
<clipPath id="clip0_1_47">
<rect width="169.804" height="16.1021" fill="white" transform="translate(0.632507)"/>
</clipPath>
</defs>
</svg>
