<svg width="30" height="30" viewBox="0 0 30 30" fill="none" xmlns="http://www.w3.org/2000/svg">
<path fill-rule="evenodd" clip-rule="evenodd" d="M2.57257 15.4937C2.80385 14.8433 3.51864 14.5035 4.1691 14.7347L14.1628 18.2881C14.7046 18.4807 15.2961 18.4807 15.8379 18.2881L25.8316 14.7347C26.482 14.5035 27.1968 14.8433 27.4281 15.4937C27.6594 16.1442 27.3196 16.859 26.6691 17.0903L16.6754 20.6436C15.5919 21.0288 14.4088 21.0288 13.3253 20.6436L3.33158 17.0903C2.68111 16.859 2.3413 16.1442 2.57257 15.4937Z" fill="#FC5A5A"/>
<path fill-rule="evenodd" clip-rule="evenodd" d="M2.57257 20.8062C2.80385 20.1558 3.51864 19.816 4.1691 20.0472L14.1628 23.6006C14.7046 23.7932 15.2961 23.7932 15.8379 23.6006L25.8316 20.0472C26.482 19.816 27.1968 20.1558 27.4281 20.8062C27.6594 21.4567 27.3196 22.1715 26.6691 22.4028L16.6754 25.9561C15.5919 26.3413 14.4088 26.3413 13.3253 25.9561L3.33158 22.4028C2.68111 22.1715 2.3413 21.4567 2.57257 20.8062Z" fill="#FC5A5A"/>
<path d="M17.1364 4.1341C15.7566 3.63238 14.2443 3.63238 12.8646 4.1341L4.05385 7.33801C1.85966 8.1359 1.85965 11.2391 4.05384 12.037L12.8646 15.2409C14.2443 15.7426 15.7566 15.7426 17.1364 15.2409L25.9471 12.037C28.1413 11.2391 28.1413 8.1359 25.9471 7.33801L17.1364 4.1341Z" fill="#FC5A5A"/>
</svg>
